<?xml version="1.0" encoding="UTF-8" standalone="no"?>
<!-- Created with Inkscape (http://www.inkscape.org/) -->

<svg
   width="1000"
   height="1000"
   viewBox="0 0 719.36 719.36"
   version="1.1"
   id="svg5"
   inkscape:version="1.1.1 (3bf5ae0d25, 2021-09-20, custom)"
   sodipodi:docname="car_vectorization.svg"
   xmlns:inkscape="http://www.inkscape.org/namespaces/inkscape"
   xmlns:sodipodi="http://sodipodi.sourceforge.net/DTD/sodipodi-0.dtd"
   xmlns="http://www.w3.org/2000/svg"
   xmlns:svg="http://www.w3.org/2000/svg">
  <sodipodi:namedview
     id="namedview7"
     pagecolor="#ffffff"
     bordercolor="#666666"
     borderopacity="1.0"
     inkscape:pageshadow="2"
     inkscape:pageopacity="0.0"
     inkscape:pagecheckerboard="true"
     inkscape:document-units="px"
     showgrid="false"
     showborder="true"
     inkscape:zoom="0.45254834"
     inkscape:cx="206.60776"
     inkscape:cy="258.53592"
     inkscape:window-width="1920"
     inkscape:window-height="1055"
     inkscape:window-x="0"
     inkscape:window-y="0"
     inkscape:window-maximized="1"
     inkscape:current-layer="0"
     showguides="false"
     inkscape:lockguides="false"
     units="px"
     scale-x="0.26458" />
  <defs
     id="defs2" />
  <g
     inkscape:groupmode="layer"
     id="-1"
     style="display:inline">
    <path
       style="display:inline;opacity:1;fill:#000000;fill-opacity:1;stroke:none;stroke-width:0.264583px;stroke-linecap:butt;stroke-linejoin:miter;stroke-opacity:1"
       d="m 74.909967,310.83029 c 0,0 2.52017,-2.51376 -0.39581,-5.18024 -2.91598,-2.66648 -12.443496,-12.83767 -12.443496,-12.83767 l 42.654149,9.44786 3.71206,6.90909 0.35772,8.23582 -34.498473,0.32594 z"
       id="spoiler_bottom" />
    <path
       style="display:inline;opacity:1;fill:#1d2532;fill-opacity:1;stroke:none;stroke-width:0.264583px;stroke-linecap:butt;stroke-linejoin:miter;stroke-opacity:1"
       d="m 62.070631,292.8124 -3.674341,-4.08936 c 0,0 0.461137,-2.78406 6.807167,-1.11858 6.34603,1.66549 59.044513,13.73839 59.044513,13.73839 l -0.0325,1.40977 -1.05945,0.0383 -35.805953,-5.47904 18.542443,4.04329 2.07709,6.28836 -0.1265,0.39635 -3.11829,-5.77964 z"
       id="spoiler_top" />
    <path
       style="display:inline;opacity:1;fill:#000000;fill-opacity:1;stroke:none;stroke-width:0.264583px;stroke-linecap:butt;stroke-linejoin:miter;stroke-opacity:1"
       d="m 123.15602,302.79092 -35.805953,-5.47904 18.542443,4.04329 2.07709,6.28836 c 0,0 4.86477,-3.10779 15.18642,-4.85261 z"
       id="spoiler_front" />
    <path
       style="display:inline;opacity:1;fill:#7ca8c2;fill-opacity:1;stroke:#486478;stroke-width:0.264583px;stroke-linecap:butt;stroke-linejoin:miter;stroke-opacity:1"
       d="m 382.08964,272.42354 c 0,0 4.64227,-0.34934 39.88562,17.83722 35.24332,18.18655 47.91678,25.90589 47.91678,25.90589 l 2.5889,3.1288 -21.51645,-1.75763 -73.75911,-43.04016 3.12277,-2.58736 z"
       id="front_window" />
    <path
       style="fill:#7db0cc;fill-opacity:1;stroke:#7db0cc;stroke-width:0.264583px;stroke-linecap:butt;stroke-linejoin:miter;stroke-opacity:1"
       d="m 232.21633,272.47124 c 0,0 -65.77685,17.68232 -93.71855,31.98086 l 0.63249,1.23032 106.12557,-28.92923 -4.29373,-4.92752 z"
       id="back_window"
       sodipodi:nodetypes="cccccc" />
    <path
       style="display:inline;opacity:1;fill:#8f0204;fill-opacity:1;stroke:#010101;stroke-width:0.264583px;stroke-linecap:butt;stroke-linejoin:miter;stroke-opacity:1"
       d="m 54.843816,344.77088 c 0,0 -0.792708,-0.46543 -0.978543,-1.41372 -0.185836,-0.9483 7.956198,-10.43604 14.542204,-19.88626 l 0.75817,-0.89684 6.00361,0.0407 0.0702,15.77886 -14.503999,8.19157 -5.89163,-1.81432"
       id="back_light" />
  </g>
  <g
     inkscape:groupmode="layer"
     id="0"
     style="display:inline;opacity:1">
    <path
       style="display:inline;opacity:1;fill:#f5f5f5;fill-opacity:1;stroke:#000000;stroke-width:0.264583px;stroke-linecap:butt;stroke-linejoin:miter;stroke-opacity:1"
       d="m 69.495817,321.55365 -3.14602,-2.94302 5.25388,-7.30676 c 0,0 32.990413,1.12845 60.525553,-5.23042 37.14143,-10.83199 61.21305,-21.30333 109.45796,-30.41912 -2.83337,-3.65907 -9.37086,-3.18309 -9.37086,-3.18309 0,0 50.43187,-9.58375 90.92447,-10.09615 0,0 37.09677,-1.44307 58.94884,10.04845 0,0 -3.88802,0.88159 -2.75587,3.01843 0,0 17.41093,4.28333 72.91202,41.29335 0,0 18.20018,1.62762 26.71746,-2.25108 0,0 30.35687,-3.03648 112.216,7.02663 0,0 41.69243,7.05295 74.87557,31.4158 0,0 -1.57289,4.23012 -2.24529,12.89467 -0.6724,8.66455 -0.1239,5.58251 4.2851,18.57942 0,0 -0.4596,5.30881 -0.89072,10.69074 0,0 -1.15019,1.09828 -2.44009,1.96415 l 2.68935,22.11853 c 0,0 -4.43228,4.41245 -12.46081,6.62653 -9.58616,2.64365 -25.93072,-0.19536 -25.93072,-0.19536 l -6.64449,-6.56727 -7.51746,-0.50296 -114.99998,-0.10056 -18.78028,6.42444 c 0,0 -219.67484,-4.85938 -242.48301,-4.34977 l -0.019,-1.14546 -107.51468,-2.56461 -1.21092,3.12384 -47.454483,-6.21864 -19.183333,-6.80079 -16.881446,-20.58428 -0.223497,-6.27236 3.011491,-7.38133 c 0,0 2.533656,-2.35914 1.492744,-5.52791 -0.323757,-0.98559 -0.985421,-2.13349 -1.441298,-3.45323 -0.445887,-1.29081 -0.686605,-2.75017 -0.954787,-4.01472 -0.516431,-2.43511 -0.801157,-7.4247 -0.801157,-7.4247 l 7.387764,-7.47416 6.711526,0.79598 c 0,0 12.170113,-7.61703 12.934173,-13.95028 0.28079,-2.32745 -0.65958,-5.1089 -3.40761,-8.50008 -0.47286,-0.58353 -1,-1.11608 -1.58609,-1.56285 z"
       id="chassis" />
  </g>
  <g
     inkscape:groupmode="layer"
     id="1"
     style="display:inline">
    <path
       style="display:inline;opacity:1;fill:#121212;fill-opacity:1;stroke:#000000;stroke-width:0.264583px;stroke-linecap:butt;stroke-linejoin:miter;stroke-opacity:1"
       d="m 649.79845,396.05574 c 1.57645,0.91261 4.07767,2.96499 6.26136,3.30326 l 2.13918,1.61732 -2.24745,8.61465 c -1.31189,0.056 -12.79849,-1.696 -12.79849,-1.696 -3.69569,-1.50715 -8.21611,-14.16595 -9.20701,-17.05778 l 0.96972,-0.76433 12.55845,0.54457 -0.10543,1.59046 c 1.46917,1.0825 0.85321,2.93525 2.42967,3.84785 z"
       id="bumper_holes" />
    <path
       style="display:inline;fill:#000000;fill-opacity:1;stroke:none;stroke-width:0.264583px;stroke-linecap:butt;stroke-linejoin:miter;stroke-opacity:1"
       d="m 45.70079,384.449 c -1.990224,0.74328 -2.318939,3.59222 -2.318939,3.59222 l 10.103292,13.11348 0.08027,9.6605 8.456903,0.84668 c 4.703861,6.6076 16.000111,6.514 16.000111,6.514 8.99098,5.76549 22.380543,4.99742 22.380543,4.99742 26.13537,1.8683 36.34827,1.53216 36.34827,1.53216 l 94.16445,-4.08631 7.72073,-0.10992 c 5.14007,-71.44074 -55.84198,-73.03292 -55.84198,-73.03292 -64.49914,3.98083 -55.80877,68.42102 -55.80877,68.42102 l -11.42984,0.0348 c 0,0 -7.62087,-5.9924 -27.294883,-7.07873 -19.674,-1.08632 -20.96901,-3.32774 -31.938137,-15.42574 l -3.154763,-4.08476 c 0,0 -2.161324,-3.48626 -6.158087,-3.82994 l -0.649089,0.0199 z"
       id="back_underside" />
    <path
       style="display:inline;opacity:1;fill:#000000;fill-opacity:1;stroke:#000000;stroke-width:0.264583px;stroke-linecap:butt;stroke-linejoin:miter;stroke-opacity:1"
       d="m 604.42227,426.23341 11.1584,0.23951 -1.28042,-9.73945 c 0,0 4.66312,-29.30633 -16.32813,-51.21195 -20.99124,-21.9056 -49.39374,-14.99349 -49.39374,-14.99349 0,0 -17.53118,0.57649 -32.40156,18.78962 -14.87038,18.21315 -12.89608,42.99548 -12.89608,42.99548 l -9.50339,-0.31798 -13.41743,12.58964 23.07786,2.32372 0.11737,-2.71952 z"
       id="front_underside" />
    <path
       style="display:inline;opacity:1;fill:#686868;fill-opacity:1;stroke:#000000;stroke-width:0.264583px;stroke-linecap:butt;stroke-linejoin:miter;stroke-opacity:1"
       d="m 655.88542,351.43003 -50.98238,-5.59371 c 0,0 -2.50515,1.01357 -0.35748,3.22296 2.14768,2.2094 11.6817,11.08757 19.4504,12.66859 7.76869,1.58099 17.29859,3.10398 21.2258,2.70518 0,0 2.27012,0.36256 3.36863,-1.9165 1.09851,-2.27906 3.23434,-6.76716 4.02698,-9.36258 z"
       id="headlights_background" />
    <path
       style="fill:#000000;fill-opacity:1;stroke:none;stroke-width:0.264583px;stroke-linecap:butt;stroke-linejoin:miter;stroke-opacity:1"
       d="m 200.55997,297.58481 c 2.12124,2.58514 7.43086,8.00245 10.13641,8.72327 2.70554,0.72081 -1.26841,0.4951 30.21104,3.49122 31.47946,2.99612 160.38687,5.95836 160.38687,5.95836 l 36.64963,0.93014 c 0,0 -47.46992,-28.64683 -72.43214,-35.96812 -24.96225,-7.32128 -42.93622,-6.05818 -42.93622,-6.05818 0,0 -58.78168,-3.70613 -123.34061,19.05481 0,0 -0.79623,1.28336 1.32502,3.8685 z"
       id="window_frame"
       sodipodi:nodetypes="sssccsccs" />
    <path
       style="fill:#000000;fill-opacity:1;stroke:none;stroke-width:0.264583px;stroke-linecap:butt;stroke-linejoin:miter;stroke-opacity:1"
       d="m 484.72776,338.21316 c 0,0 2.26033,-0.34312 5.95344,1.83422 3.69311,2.17734 6.0189,4.53669 6.69306,6.22394 0.67413,1.68727 -13.5097,29.19216 -16.18345,32.7382 0,0 -11.32589,16.48124 -15.4238,18.23286 0,0 -1.91861,0.18198 -2.24414,-0.96799 -0.32553,-1.14997 1.58996,-3.4245 1.58996,-3.4245 l 10.61085,-16.56703 c 0,0 15.80438,-25.84094 16.58829,-29.59382 0,0 -2.60763,-4.25925 -4.28917,-5.25343 0,0 -1.13821,-0.1596 -1.77519,-0.84868 -0.63698,-0.68908 -2.17053,-1.82693 -1.51985,-2.37377 z"
       id="cool_line_vertical"
       sodipodi:nodetypes="cssccsccccsc" />
    <path
       style="fill:#070707;fill-opacity:1;stroke:none;stroke-width:0.259251px;stroke-linecap:butt;stroke-linejoin:miter;stroke-opacity:1"
       d="m 466.36021,346.47754 20.04432,-0.0251 c 0,0 1.38685,1.0324 0.0827,2.4057 l -20.10295,0.0493 c 0,0 -1.26807,-1.1904 -0.024,-2.42998 z"
       id="cool_line_horizontal" />
    <ellipse
       style="fill:none;fill-opacity:1;stroke:#000000;stroke-width:0.255331;stroke-opacity:1"
       id="handle"
       cx="297.1326"
       cy="334.24228"
       rx="18.349743"
       ry="4.9622874" />
    <path
       style="display:inline;opacity:1;fill:#8f0204;fill-opacity:1;stroke:none;stroke-width:0.264583px;stroke-linecap:butt;stroke-linejoin:miter;stroke-opacity:1"
       d="m 79.615367,383.51908 27.573123,1.0065 c 0,0 -1.32725,3.06869 -3.21713,3.76958 l -20.749343,-1.24519 c 0,0 -2.06111,-1.45943 -3.60665,-3.53089 z"
       id="bottom_back_light" />
    <ellipse
       style="fill:none;fill-opacity:1;stroke:#a7a7a7;stroke-width:0.240773;stroke-opacity:1"
       id="gas_door"
       cx="120.32497"
       cy="330.01443"
       rx="12.045891"
       ry="12.200027" />
    <path
       style="display:inline;opacity:1;fill:none;stroke:#c3c3c3;stroke-width:0.264583px;stroke-linecap:butt;stroke-linejoin:miter;stroke-opacity:1"
       d="m 442.68436,316.7068 6.1255,4.26467"
       id="door_line_small" />
    <path
       style="fill:none;stroke:#c3c3c3;stroke-width:0.264583px;stroke-linecap:butt;stroke-linejoin:miter;stroke-opacity:1"
       d="m 276.4915,311.82057 c 0,0 -8.06598,17.9278 -7.928,20.75906 0.138,2.83127 7.58208,38.7741 17.38717,56.14926 9.80511,17.37518 13.8458,19.58136 22.87196,21.54481 9.02615,1.96342 142.43978,3.36555 142.43978,3.36555 l 2.73402,-2.91949 3.56637,-12.95144 -0.10504,-6.50867 c 0,0 4.39621,-23.31027 5.20009,-35.11587 0.41991,-6.1667 1.37891,-12.56714 -0.2047,-18.54181 -1.54339,-5.82291 -4.02418,-12.34044 -8.77737,-15.79724"
       id="door_line"
       sodipodi:nodetypes="csssccccaac" />
  </g>
  <g
     inkscape:groupmode="layer"
     id="2"
     style="display:inline">
    <path
       style="display:inline;opacity:1;fill:#1f1f1f;fill-opacity:1;stroke:#000000;stroke-width:0.264583px;stroke-linecap:butt;stroke-linejoin:miter;stroke-opacity:1"
       d="m 669.43624,422.8278 -5.21002,2.20454 -33.45365,0.0316 -9.60853,-8.22898 10.44351,7.11096 c 0,0 14.02052,-0.0114 20.22983,0.1252 6.2093,0.13656 12.29611,-6.24557 12.29611,-6.24557 l 0.29749,-2.59297 -8.47944,-5.6416 0.10828,-10.23198 c 3.66217,0.5673 6.71365,-0.9673 8.704,-2.30335 0,0 8.65923,16.4457 8.01895,20.94399 -0.46438,3.26249 -2.0155,4.3323 -2.83272,4.67388 -0.30956,0.12938 -0.51381,0.15428 -0.51381,0.15428"
       id="bumper_front" />
    <path
       style="display:inline;opacity:1;fill:#141414;fill-opacity:1;stroke:#000000;stroke-width:0.264583px;stroke-linecap:butt;stroke-linejoin:miter;stroke-opacity:1"
       d="m 621.16404,416.83497 -6.86379,-0.1015 0.14785,10.4897 60.19413,1.56138 c 0,0 1.20669,-0.65214 1.20362,-1.20015 -0.003,-0.54797 -6.40961,-4.7566 -6.40961,-4.7566 l -14.1465,1.73691 -23.97959,0.0931 -10.14611,-7.82285"
       id="bumper_front_bottom" />
    <path
       style="display:inline;opacity:1;fill:#111111;fill-opacity:1;stroke:#000000;stroke-width:0.264583px;stroke-linecap:butt;stroke-linejoin:miter;stroke-opacity:1"
       d="m 633.94605,390.8372 c -0.12878,-0.3758 -0.19794,-0.58666 -0.19794,-0.58666 0.10406,-7.24286 4.3263,-7.40477 4.3263,-7.40477 6.43295,-0.24463 14.71582,0.64453 14.71582,0.64453 -2.29233,0.44556 -0.39015,6.76331 -0.39015,6.76331 l 1.60958,-0.12433 -2.15953,1.46989 -4.3769,-0.2157 z"
       id="bumper_fog_lights" />
    <path
       id="tire_front_outer"
       style="opacity:1;fill:#343434;fill-opacity:1;stroke:#000000;stroke-width:0.573568"
       d="m 558.64352,359.98653 c -26.844,0 -48.604,21.692 -48.604,48.451 0,26.759 21.76,48.451 48.604,48.451 26.843,0 48.604,-21.692 48.604,-48.451 0,-26.759 -21.761,-48.451 -48.604,-48.451 z m -0.285,12.639 c 19.765,0 35.788,15.973 35.789,35.677 0,9.462 -3.771,18.536 -10.483,25.227 -6.711,6.691 -15.815,10.45 -25.306,10.45 -9.492,0 -18.596,-3.759 -25.308,-10.45 -6.711,-6.69 -10.482,-15.765 -10.482,-25.227 0,-9.462 3.771,-18.537 10.483,-25.227 6.711,-6.691 15.815,-10.45 25.307,-10.45 z" />
    <path
       id="tire_back_outer"
       style="display:inline;opacity:1;fill:#343434;fill-opacity:1;stroke:#000000;stroke-width:0.573568"
       d="m 183.67931,359.97819 c -26.844,0 -48.604,21.692 -48.604,48.451 0,26.759 21.76,48.451 48.604,48.451 26.843,0 48.604,-21.692 48.604,-48.451 0,-26.759 -21.761,-48.451 -48.604,-48.451 z m -0.285,12.639 c 19.765,0 35.788,15.973 35.789,35.677 0,9.462 -3.771,18.536 -10.483,25.227 -6.711,6.691 -15.815,10.45 -25.306,10.45 -9.492,0 -18.596,-3.759 -25.308,-10.45 -6.711,-6.69 -10.482,-15.765 -10.482,-25.227 0,-9.462 3.771,-18.537 10.483,-25.227 6.711,-6.691 15.815,-10.45 25.307,-10.45 z" />
    <path
       style="display:inline;fill:#b3b2b1;fill-opacity:1;stroke:#000000;stroke-width:0.264583px;stroke-linecap:butt;stroke-linejoin:miter;stroke-opacity:1"
       d="m 626.16028,361.01894 v -11.85815 l -21.10997,-2.28147 c 0,0 -0.88342,0.33475 0.19463,1.33154 1.07801,0.99679 6.86908,6.66647 11.1516,9.09291 4.28252,2.42647 5.5005,3.04967 9.7626,3.71517 z"
       id="headlights_foreground" />
    <path
       style="fill:#485e66;fill-opacity:1;stroke:none;stroke-width:0.264583px;stroke-linecap:butt;stroke-linejoin:miter;stroke-opacity:1"
       d="m 205.30444,296.77433 c 0,0 28.89047,-9.81399 57.5499,-13.7717 28.65943,-3.95771 62.85156,-4.15559 65.34857,-3.66763 2.49698,0.48795 24.98868,1.12316 38.12831,6.81694 13.13963,5.69379 50.21606,22.77802 50.21606,22.77802 l -15.41216,2.90892 -116.38074,-3.48134 c 0,0 -66.61834,-3.51454 -73.01898,-6.01397 0,0 -4.72801,-3.0326 -6.43096,-5.56924 z"
       id="window_background"
       sodipodi:nodetypes="csssccccc" />
    <path
       style="fill:#7db0cc;fill-opacity:1;stroke:#364c54;stroke-width:0.264583px;stroke-linecap:butt;stroke-linejoin:miter;stroke-opacity:1"
       d="m 225.65273,300.89264 c 0,0 0.32161,2.55292 4.07266,2.74321 3.75108,0.19029 22.03143,1.27513 22.03143,1.27513 0,0 2.29356,-0.111 1.33961,-3.35206 -0.93522,-3.17742 -1.72143,-5.09928 -1.72143,-5.09928 0,0 -0.28725,-1.93069 -3.81596,-0.91168 -3.33587,0.96332 -21.90631,5.34468 -21.90631,5.34468 z"
       id="window_inner_back"
       sodipodi:nodetypes="cscscsc" />
  </g>
  <g
     inkscape:groupmode="layer"
     id="3"
     style="display:inline">
    <path
       style="display:inline;opacity:1;fill:#c0c0c0;fill-opacity:1;stroke:#000000;stroke-width:0.264583px;stroke-linecap:butt;stroke-linejoin:miter;stroke-opacity:1"
       d="m 637.80977,389.32007 c 0,0 0.9873,-5.17019 3.34373,-5.94288 2.35643,-0.77269 9.52182,-0.0389 10.65649,0.66542 0,0 -0.7788,2.14645 0.59009,6.211 z"
       id="fog_lights" />
    <path
       id="tire_front_inner"
       style="display:inline;opacity:1;fill:#121212;fill-opacity:1;stroke:none;stroke-width:0.422335"
       d="m 558.35852,372.62553 c -9.492,0 -18.596,3.759 -25.307,10.45 -6.712,6.69 -10.483,15.765 -10.483,25.227 0,9.462 3.771,18.536 10.483,25.227 6.711,6.691 15.815,10.449 25.307,10.449 19.765,0 35.789,-15.973 35.789,-35.676 -10e-4,-19.704 -16.024,-35.677 -35.789,-35.677 z m 0.113,9.099 c 6.991,0 13.696,2.787 18.64,7.749 4.944,4.963 7.721,11.693 7.721,18.71 0,7.018 -2.777,13.748 -7.721,18.71 -4.944,4.963 -11.649,7.75 -18.64,7.75 -6.992,0 -13.697,-2.787 -18.64,-7.75 -4.944,-4.962 -7.721,-11.692 -7.721,-18.71 0,-7.017 2.777,-13.747 7.721,-18.71 4.943,-4.962 11.648,-7.749 18.64,-7.749 z" />
    <path
       id="tire_back_inner"
       style="display:inline;opacity:1;fill:#121212;fill-opacity:1;stroke:none;stroke-width:0.422335"
       d="m 183.39431,372.61719 c -9.492,0 -18.596,3.759 -25.307,10.45 -6.712,6.69 -10.483,15.765 -10.483,25.227 0,9.462 3.771,18.536 10.483,25.227 6.711,6.691 15.815,10.449 25.307,10.449 19.765,0 35.789,-15.973 35.789,-35.676 -0.001,-19.704 -16.024,-35.677 -35.789,-35.677 z m 0.113,9.099 c 6.991,0 13.696,2.787 18.64,7.749 4.944,4.963 7.721,11.693 7.721,18.71 0,7.018 -2.777,13.748 -7.721,18.71 -4.944,4.963 -11.649,7.75 -18.64,7.75 -6.992,0 -13.697,-2.787 -18.64,-7.75 -4.944,-4.962 -7.721,-11.692 -7.721,-18.71 0,-7.017 2.777,-13.747 7.721,-18.71 4.943,-4.962 11.648,-7.749 18.64,-7.749 z" />
    <path
       style="fill:#c37519;fill-opacity:1;stroke:none;stroke-width:0.264583px;stroke-linecap:butt;stroke-linejoin:miter;stroke-opacity:1"
       d="m 607.9883,349.1553 9.76066,8.28515 5.86486,-0.11033 c 0,0 1.3589,0.11681 0.74808,-0.9729 -0.61081,-1.08974 -4.45143,-7.67895 -4.45143,-7.67895 l -11.53136,-0.49778 c 0,0 -0.68368,0.20817 -0.39081,0.97481 z"
       id="headlights" />
    <path
       style="display:inline;opacity:1;fill:#7fb2cf;fill-opacity:1;stroke:#364c54;stroke-width:0.264583px;stroke-linecap:butt;stroke-linejoin:miter;stroke-opacity:1"
       d="m 290.71518,287.92904 c 0,0 36.36494,-3.86293 51.76695,-2.35071 15.402,1.51222 49.54743,15.6875 59.9224,21.2798 l -1.26941,4.98075 c 0,0 -77.03355,-2.04519 -110.50789,-3.3419 z"
       id="window_inner_front"
       sodipodi:nodetypes="cscccc" />
    <path
       style="display:inline;fill:#444443;fill-opacity:1;stroke:#030303;stroke-width:0.264583px;stroke-linecap:butt;stroke-linejoin:miter;stroke-opacity:1"
       d="m 277.01003,279.61348 c 0,0 -3.12857,3.21242 -1.46431,8.30692 1.66423,5.0945 10.43995,23.78791 10.43995,23.78791 l -8.48757,-0.14947 -11.51178,-31.87337 z"
       id="window_division" />
  </g>
  <g
     inkscape:groupmode="layer"
     id="4"
     style="display:inline">
    <ellipse
       style="display:inline;opacity:1;fill:#999999;fill-opacity:1;stroke:none;stroke-width:0.274844"
       id="wheel_front"
       cx="558.42755"
       cy="407.95895"
       rx="23.12772"
       ry="23.380476" />
    <ellipse
       style="display:inline;opacity:1;fill:#999999;fill-opacity:1;stroke:none;stroke-width:0.274844"
       id="wheel_back"
       cx="183.46332"
       cy="407.95062"
       rx="23.12772"
       ry="23.380476" />
    <ellipse
       style="fill:#ffffff;fill-opacity:1;stroke:none;stroke-width:0.317517"
       id="headlights_shine"
       cx="618.62"
       cy="349.97632"
       rx="1.8875099"
       ry="1.8484871" />
    <path
       style="display:inline;opacity:1;fill:#485e66;fill-opacity:1;stroke:#364c54;stroke-width:0.264583px;stroke-linecap:butt;stroke-linejoin:miter;stroke-opacity:1"
       d="m 306.5153,306.74398 0.0924,-15.59375 c 0,0 0.0621,-2.93056 -2.23695,-3.15348 -2.29907,-0.22292 -3.87209,0.53357 -4.67987,2.1749 -1.91344,3.88794 -2.19987,12.81235 -2.19987,12.81235 0,0 -2.097,1.44925 -1.42908,5.58516 l 11.38674,0.3631 z"
       id="seat"
       sodipodi:nodetypes="ccsscccc" />
    <path
       style="display:inline;opacity:1;fill:#485e66;fill-opacity:1;stroke:#364c54;stroke-width:0.264583px;stroke-linecap:butt;stroke-linejoin:miter;stroke-opacity:1"
       d="m 382.02331,311.1774 3.66109,-8.67873 c 0,0 0.60977,-1.94054 2.57313,-1.99797 1.96337,-0.0574 2.31529,2.45321 1.86867,3.19918 -0.44662,0.74598 -3.32118,7.69737 -3.32118,7.69737 z"
       id="driving_wheel"
       sodipodi:nodetypes="ccsscc" />
    <path
       style="fill:#141313;fill-opacity:1;stroke:none;stroke-width:0.264583px;stroke-linecap:butt;stroke-linejoin:miter;stroke-opacity:1"
       d="m 414.14814,301.26125 c -2.23009,-0.12807 -6.00948,-0.0822 -6.92909,0.004 -0.91958,0.086 -4.24037,0.007 -5.42869,2.39513 -1.1883,2.3886 -2.05097,5.44927 -2.0959,7.05144 -0.0449,1.60217 0.15436,4.02176 0.8481,5.0734 0.69371,1.05165 5.88462,2.20121 9.64911,2.29139 3.76452,0.0902 3.84255,0.0156 3.84255,0.0156 l 1.10638,2.72928 c 0,0 10.18524,0.0841 16.3046,-0.0592 0.88138,-0.0206 2.10462,-0.42982 2.31059,-1.28705 0.26771,-1.11417 -1.91535,-2.85464 -1.91535,-2.85464 l 5.77069,0.03 -12.52823,-7.25395 v 0 c 0,0 -8.70466,-8.00733 -10.93476,-8.13541 z"
       id="mirror"
       sodipodi:nodetypes="sccsssccsaccccs" />
  </g>
  <g
     inkscape:groupmode="layer"
     id="5"
     style="display:inline">
    <ellipse
       style="display:inline;opacity:1;fill:#616d7d;fill-opacity:1;stroke:none;stroke-width:0.194952"
       id="bore_front"
       cx="558.53674"
       cy="408.11166"
       rx="16.527826"
       ry="16.460772" />
    <ellipse
       style="display:inline;opacity:1;fill:#616d7d;fill-opacity:1;stroke:none;stroke-width:0.194952"
       id="bore_back"
       cx="183.57251"
       cy="408.10333"
       rx="16.527826"
       ry="16.460772" />
    <path
       style="display:inline;opacity:1;fill:#fe1d29;fill-opacity:1;stroke:none;stroke-width:0.264583px;stroke-linecap:butt;stroke-linejoin:miter;stroke-opacity:1"
       d="m 159.54973,418.94671 3.80405,0.1479 2.12767,-1.77601 c 0,0 -3.76078,-14.46932 5.97662,-26.24582 l -4.49068,-3.8448 c 0,0 -13.00391,7.70343 -7.41766,31.71873 z"
       id="red_wheel_back" />
    <path
       style="display:inline;opacity:1;fill:#fe1d29;fill-opacity:1;stroke:none;stroke-width:0.264583px;stroke-linecap:butt;stroke-linejoin:miter;stroke-opacity:1"
       d="m 534.56501,418.99875 3.80405,0.1479 2.12767,-1.77601 c 0,0 -3.76078,-14.46932 5.97662,-26.24582 l -4.49068,-3.8448 c 0,0 -13.00391,7.70343 -7.41766,31.71873 z"
       id="red_wheel_front" />
  </g>
  <g
     inkscape:groupmode="layer"
     id="6"
     style="display:inline">
    <ellipse
       style="display:inline;opacity:1;fill:#121212;fill-opacity:1;stroke:none;stroke-width:0.155421"
       id="center_cap_front"
       cx="558.5127"
       cy="408.06296"
       rx="13.146633"
       ry="13.152543" />
    <ellipse
       style="display:inline;opacity:1;fill:#121212;fill-opacity:1;stroke:none;stroke-width:0.155421"
       id="center_cap_back"
       cx="183.54846"
       cy="408.05463"
       rx="13.146633"
       ry="13.152543" />
  </g>
  <g
     inkscape:groupmode="layer"
     id="7"
     style="display:inline">
    <ellipse
       style="display:inline;opacity:1;fill:#b4b3b2;fill-opacity:1;stroke:none;stroke-width:0.0416182"
       id="hub_front"
       cx="558.54449"
       cy="408.0766"
       rx="3.5054274"
       ry="3.536978" />
    <ellipse
       style="display:inline;opacity:1;fill:#5a5858;fill-opacity:1;stroke:none;stroke-width:0.0297272"
       id="lug_0_front"
       cx="565.70319"
       cy="407.44724"
       rx="2.5020185"
       ry="2.5282655" />
    <ellipse
       style="display:inline;opacity:1;fill:#5a5858;fill-opacity:1;stroke:none;stroke-width:0.0297272"
       id="lug_1_front"
       cx="559.67261"
       cy="401.01059"
       rx="2.5020185"
       ry="2.5282655" />
    <ellipse
       style="display:inline;opacity:1;fill:#5a5858;fill-opacity:1;stroke:none;stroke-width:0.0297272"
       id="lug_2_front"
       cx="551.56006"
       cy="404.41074"
       rx="2.5020185"
       ry="2.5282655" />
    <ellipse
       style="display:inline;opacity:1;fill:#5a5858;fill-opacity:1;stroke:none;stroke-width:0.0297272"
       id="lug_3_front"
       cx="552.3205"
       cy="413.36694"
       rx="2.5020185"
       ry="2.5282655" />
    <ellipse
       style="display:inline;opacity:1;fill:#5a5858;fill-opacity:1;stroke:none;stroke-width:0.0297272"
       id="lug_4_front"
       cx="561.31683"
       cy="415.55328"
       rx="2.5020185"
       ry="2.5282655" />
    <ellipse
       style="display:inline;fill:#5a5858;fill-opacity:1;stroke:none;stroke-width:0.0297272"
       id="lug_0_back"
       cx="190.62363"
       cy="407.44666"
       rx="2.5020185"
       ry="2.5282655" />
    <ellipse
       style="display:inline;fill:#5a5858;fill-opacity:1;stroke:none;stroke-width:0.0297272"
       id="lug_1_back"
       cx="184.59305"
       cy="401.0098"
       rx="2.5020185"
       ry="2.5282655" />
    <ellipse
       style="display:inline;fill:#5a5858;fill-opacity:1;stroke:none;stroke-width:0.0297272"
       id="lug_2_back"
       cx="176.4805"
       cy="404.41016"
       rx="2.5020185"
       ry="2.5282655" />
    <ellipse
       style="display:inline;fill:#5a5858;fill-opacity:1;stroke:none;stroke-width:0.0297272"
       id="lug_3_back"
       cx="177.24095"
       cy="413.36624"
       rx="2.5020185"
       ry="2.5282655" />
    <ellipse
       style="display:inline;fill:#5a5858;fill-opacity:1;stroke:none;stroke-width:0.0297272"
       id="lug_4_back"
       cx="186.23729"
       cy="415.55246"
       rx="2.5020185"
       ry="2.5282655" />
    <ellipse
       style="display:inline;fill:#b4b3b2;fill-opacity:1;stroke:none;stroke-width:0.0416182"
       id="hub_back"
       cx="183.46494"
       cy="408.07602"
       rx="3.5054274"
       ry="3.536978" />
  </g>
  <g
     inkscape:groupmode="layer"
     id="8"
     style="display:inline">
    <path
       style="opacity:1;fill:#b4b3b2;fill-opacity:1;stroke:none;stroke-width:0.264583px;stroke-linecap:butt;stroke-linejoin:miter;stroke-opacity:1"
       d="m 568.07525,407.46891 c 0,0 -0.003,-3.58447 -3.57754,-2.05838 0,0 0.18939,3.83942 3.57754,2.05838 z"
       id="lug_inner_0_front" />
    <path
       style="opacity:1;fill:#b4b3b2;fill-opacity:1;stroke:none;stroke-width:0.264583px;stroke-linecap:butt;stroke-linejoin:miter;stroke-opacity:1"
       d="m 561.81573,400.2431 c 0,0 -1.21297,-3.37301 -4.06242,-0.72972 0,0 1.47449,3.55005 4.06242,0.72972 z"
       id="lug_inner_1_front" />
    <path
       style="display:inline;opacity:1;fill:#b4b3b2;fill-opacity:1;stroke:none;stroke-width:0.264583px;stroke-linecap:butt;stroke-linejoin:miter;stroke-opacity:1"
       d="m 553.75053,403.50028 c 0,0 -1.40872,-3.29604 -4.09823,-0.49018 0,0 1.68018,3.45746 4.09823,0.49018 z"
       id="lug_inner_2_front" />
    <path
       style="display:inline;opacity:1;fill:#b4b3b2;fill-opacity:1;stroke:none;stroke-width:0.264583px;stroke-linecap:butt;stroke-linejoin:miter;stroke-opacity:1"
       d="m 553.49495,415.42785 c 0,0 3.09655,-1.80549 -0.0203,-4.1274 0,0 -3.22316,2.09482 0.0203,4.1274 z"
       id="lug_inner_3_front" />
    <path
       style="display:inline;opacity:1;fill:#b4b3b2;fill-opacity:1;stroke:none;stroke-width:0.264583px;stroke-linecap:butt;stroke-linejoin:miter;stroke-opacity:1"
       d="m 563.58958,416.23323 c 0,0 0.99372,-3.44397 -2.86416,-2.97194 0,0 -0.88557,3.74069 2.86416,2.97194 z"
       id="lug_inner_4_front" />
    <path
       style="display:inline;fill:#b4b3b2;fill-opacity:1;stroke:none;stroke-width:0.264583px;stroke-linecap:butt;stroke-linejoin:miter;stroke-opacity:1"
       d="m 192.9957,407.46835 c 0,0 -0.003,-3.58447 -3.57754,-2.05838 0,0 0.18939,3.83942 3.57754,2.05838 z"
       id="lug_inner_0_back" />
    <path
       style="display:inline;fill:#b4b3b2;fill-opacity:1;stroke:none;stroke-width:0.264583px;stroke-linecap:butt;stroke-linejoin:miter;stroke-opacity:1"
       d="m 186.73618,400.24254 c 0,0 -1.21297,-3.37301 -4.06242,-0.72972 0,0 1.47449,3.55005 4.06242,0.72972 z"
       id="lug_inner_1_back" />
    <path
       style="display:inline;fill:#b4b3b2;fill-opacity:1;stroke:none;stroke-width:0.264583px;stroke-linecap:butt;stroke-linejoin:miter;stroke-opacity:1"
       d="m 178.67098,403.49972 c 0,0 -1.40872,-3.29604 -4.09823,-0.49018 0,0 1.68018,3.45746 4.09823,0.49018 z"
       id="lug_inner_2_back" />
    <path
       style="display:inline;fill:#b4b3b2;fill-opacity:1;stroke:none;stroke-width:0.264583px;stroke-linecap:butt;stroke-linejoin:miter;stroke-opacity:1"
       d="m 178.4154,415.42729 c 0,0 3.09655,-1.80549 -0.0203,-4.1274 0,0 -3.22316,2.09482 0.0203,4.1274 z"
       id="lug_inner_3_back" />
    <path
       style="display:inline;fill:#b4b3b2;fill-opacity:1;stroke:none;stroke-width:0.264583px;stroke-linecap:butt;stroke-linejoin:miter;stroke-opacity:1"
       d="m 188.51003,416.23267 c 0,0 0.99372,-3.44397 -2.86416,-2.97194 0,0 -0.88557,3.74069 2.86416,2.97194 z"
       id="lug_inner_4_back" />
  </g>
  <g
     inkscape:groupmode="layer"
     id="9"
     style="display:inline">
    <circle
       style="opacity:1;fill:#ffffff;fill-opacity:1;stroke:none;stroke-width:0.260803"
       id="lug_inner_shine_0_front"
       cx="566.38922"
       cy="406.19263"
       r="0.56820333" />
    <circle
       style="display:inline;opacity:1;fill:#ffffff;fill-opacity:1;stroke:none;stroke-width:0.260803"
       id="lug_inner_shine_2_front"
       cx="551.69904"
       cy="402.98761"
       r="0.56820333" />
    <circle
       style="display:inline;opacity:1;fill:#ffffff;fill-opacity:1;stroke:none;stroke-width:0.260803"
       id="lug_inner_shine_3_front"
       cx="553.74988"
       cy="413.32886"
       r="0.56820333" />
    <circle
       style="display:inline;opacity:1;fill:#ffffff;fill-opacity:1;stroke:none;stroke-width:0.260803"
       id="lug_inner_shine_4_front"
       cx="562.32465"
       cy="414.53888"
       r="0.56820333" />
    <circle
       style="opacity:1;fill:#ffffff;fill-opacity:1;stroke:none;stroke-width:0.260803"
       id="lug_inner_shine_1_front"
       cx="559.96307"
       cy="399.55591"
       r="0.56820333" />
    <path
       style="fill:#000000;fill-opacity:1;stroke:none;stroke-width:0.264583px;stroke-linecap:butt;stroke-linejoin:miter;stroke-opacity:1"
       d="m 570.04247,396.90729 c 0,0 9.64824,-15.69469 9.96093,-17.16013 v 0 l -3.33574,-1.98422 c 0,0 -9.23536,12.32093 -13.45118,14.87009 l 6.82599,4.27426"
       id="spoke_1" />
    <path
       style="display:inline;fill:#000000;fill-opacity:1;stroke:none;stroke-width:0.264583px;stroke-linecap:butt;stroke-linejoin:miter;stroke-opacity:1"
       d="m 573.21849,410.8509 c 0,0 18.34163,-1.73097 19.70047,-2.36251 v 0 l -0.42094,-3.85838 c 0,0 -15.39794,0.0318 -19.97005,-1.80324 l 0.69052,8.02413"
       id="spoke_2" />
    <path
       style="fill:#000000;fill-opacity:1;stroke:none;stroke-width:0.264583px;stroke-linecap:butt;stroke-linejoin:miter;stroke-opacity:1"
       d="m 554.9339,392.55065 c 0,0 -10.85518,-14.88546 -12.0921,-15.73122 v 0 l -3.10231,2.33237 c 0,0 7.89093,13.22235 8.64821,18.0904 l 6.5462,-4.69155"
       id="spoke_3" />
    <path
       style="display:inline;fill:#000000;fill-opacity:1;stroke:none;stroke-width:0.264583px;stroke-linecap:butt;stroke-linejoin:miter;stroke-opacity:1"
       d="m 544.05486,401.0796 c 0,0 -18.41859,-0.40904 -19.84153,0.0605 v 0 l -0.0296,3.88116 c 0,0 15.29759,1.7552 19.62589,4.10834 l 0.24525,-8.05004"
       id="spoke_4" />
    <path
       style="display:inline;fill:#000000;fill-opacity:1;stroke:none;stroke-width:0.264583px;stroke-linecap:butt;stroke-linejoin:miter;stroke-opacity:1"
       d="m 553.68527,423.29207 c 0,0 -10.84893,14.89001 -12.08545,15.73634 v 0 l -3.10328,-2.33109 c 0,0 7.88534,-13.22567 8.64058,-18.09403 l 6.54818,4.68878"
       id="spoke_5" />
    <path
       style="display:inline;fill:#000000;fill-opacity:1;stroke:none;stroke-width:0.264583px;stroke-linecap:butt;stroke-linejoin:miter;stroke-opacity:1"
       d="m 568.734,419.02261 c 0,0 9.45129,15.81407 9.7457,17.28328 v 0 l -3.36029,1.94235 c 0,0 -9.08065,-12.43538 -13.26428,-15.03705 l 6.87888,-4.18861"
       id="spoke_6" />
    <path
       style="display:inline;fill:#000000;fill-opacity:1;stroke:none;stroke-width:0.264583px;stroke-linecap:butt;stroke-linejoin:miter;stroke-opacity:1"
       d="m 194.79388,396.78225 c 0,0 9.64824,-15.69469 9.96093,-17.16013 v 0 l -3.33574,-1.98422 c 0,0 -9.23536,12.32093 -13.45118,14.87009 l 6.82599,4.27426"
       id="spoke_7" />
    <path
       style="display:inline;fill:#000000;fill-opacity:1;stroke:none;stroke-width:0.264583px;stroke-linecap:butt;stroke-linejoin:miter;stroke-opacity:1"
       d="m 197.9699,410.72586 c 0,0 18.34163,-1.73097 19.70047,-2.36251 v 0 l -0.42094,-3.85838 c 0,0 -15.39794,0.0318 -19.97005,-1.80324 l 0.69052,8.02413"
       id="spoke_8" />
    <path
       style="display:inline;fill:#000000;fill-opacity:1;stroke:none;stroke-width:0.264583px;stroke-linecap:butt;stroke-linejoin:miter;stroke-opacity:1"
       d="m 179.68531,392.42561 c 0,0 -10.85518,-14.88546 -12.0921,-15.73122 v 0 l -3.10231,2.33237 c 0,0 7.89093,13.22235 8.64821,18.0904 l 6.5462,-4.69155"
       id="spoke_9" />
    <path
       style="display:inline;fill:#000000;fill-opacity:1;stroke:none;stroke-width:0.264583px;stroke-linecap:butt;stroke-linejoin:miter;stroke-opacity:1"
       d="m 168.80627,400.95456 c 0,0 -18.41859,-0.40904 -19.84153,0.0605 v 0 l -0.0296,3.88116 c 0,0 15.29759,1.7552 19.62589,4.10834 l 0.24525,-8.05004"
       id="spoke_10" />
    <path
       style="display:inline;fill:#000000;fill-opacity:1;stroke:none;stroke-width:0.264583px;stroke-linecap:butt;stroke-linejoin:miter;stroke-opacity:1"
       d="m 178.43668,423.16703 c 0,0 -10.84893,14.89001 -12.08545,15.73634 v 0 l -3.10328,-2.33109 c 0,0 7.88534,-13.22567 8.64058,-18.09403 l 6.54818,4.68878"
       id="spoke_11" />
    <path
       style="display:inline;fill:#000000;fill-opacity:1;stroke:none;stroke-width:0.264583px;stroke-linecap:butt;stroke-linejoin:miter;stroke-opacity:1"
       d="m 193.48541,418.89757 c 0,0 9.45129,15.81407 9.7457,17.28328 v 0 l -3.36029,1.94235 c 0,0 -9.08065,-12.43538 -13.26428,-15.03705 l 6.87888,-4.18861"
       id="spoke_12" />
    <circle
       style="display:inline;fill:#ffffff;fill-opacity:1;stroke:none;stroke-width:0.260803"
       id="lug_inner_shine_0_back"
       cx="191.30966"
       cy="406.19205"
       r="0.56820333" />
    <circle
       style="display:inline;fill:#ffffff;fill-opacity:1;stroke:none;stroke-width:0.260803"
       id="lug_inner_shine_2_back"
       cx="176.61948"
       cy="402.98703"
       r="0.56820333" />
    <circle
       style="display:inline;fill:#ffffff;fill-opacity:1;stroke:none;stroke-width:0.260803"
       id="lug_inner_shine_3_back"
       cx="178.67033"
       cy="413.32819"
       r="0.56820333" />
    <circle
       style="display:inline;fill:#ffffff;fill-opacity:1;stroke:none;stroke-width:0.260803"
       id="lug_inner_shine_4_back"
       cx="187.2451"
       cy="414.53806"
       r="0.56820333" />
    <circle
       style="display:inline;fill:#ffffff;fill-opacity:1;stroke:none;stroke-width:0.260803"
       id="lug_inner_shine_1_back"
       cx="184.8835"
       cy="399.55511"
       r="0.56820333" />
  </g>
</svg>
